<?xml version="1.0" standalone="no"?>
<!DOCTYPE svg PUBLIC "-//W3C//DTD SVG 20010904//EN"
 "http://www.w3.org/TR/2001/REC-SVG-20010904/DTD/svg10.dtd">
<svg version="1.0" xmlns="http://www.w3.org/2000/svg"
 width="45.000000pt" height="39.000000pt" viewBox="0 0 116.000000 103.000000"
 preserveAspectRatio="xMidYMid meet">

<g transform="translate(0.000000,103.000000) scale(0.100000,-0.100000)"
fill="#000000" stroke="none">
<path d="M550 983 c-14 -2 -55 -8 -91 -14 -62 -10 -67 -13 -71 -37 -2 -15 -3
-124 -3 -244 0 -213 0 -217 24 -250 14 -18 34 -40 45 -48 79 -58 201 -51 271
17 112 108 26 272 -143 273 -55 0 -113 -19 -145 -47 -17 -16 -18 -13 -15 82
l3 99 50 13 c31 9 81 12 132 10 182 -10 328 -131 349 -289 13 -97 -39 -209
-126 -273 -74 -54 -150 -78 -250 -78 -136 0 -237 46 -315 144 -56 69 -65 117
-65 328 l-1 186 -49 -52 c-121 -130 -149 -318 -71 -471 30 -59 96 -142 112
-142 5 0 9 41 9 92 l0 91 54 -59 c29 -33 70 -68 90 -79 35 -19 36 -21 36 -81
0 -38 5 -66 13 -72 23 -19 158 -35 242 -28 251 21 448 182 486 400 39 225
-136 453 -392 510 -71 16 -141 23 -179 19z"/>
</g>
</svg>
